<svg xmlns="http://www.w3.org/2000/svg" width="512" height="512" viewBox="0 0 512 512" version="1.1">
	<path d="M 240 57.103 C 227.292 58.531, 212.050 61.915, 199.540 66.085 C 135.545 87.416, 88.711 140.450, 74.235 207.979 C 71.741 219.609, 71.549 222.243, 71.528 245 C 71.508 266.678, 71.771 270.813, 73.812 280.900 C 82.189 322.313, 103.933 360.468, 134.360 387.147 C 184.538 431.144, 254.027 445.876, 316.880 425.843 C 328.867 422.022, 341 417.001, 341 415.862 C 341 415.123, 275.132 320.969, 273.005 318.668 C 271.892 317.463, 255.884 326.991, 256.697 328.375 C 257.060 328.994, 265.629 342.887, 275.738 359.249 C 285.848 375.610, 293.882 389.382, 293.592 389.852 C 292.674 391.336, 277.873 393.437, 268.109 393.469 L 258.719 393.500 250.528 363.252 C 246.023 346.615, 242.145 332.812, 241.910 332.577 C 241.676 332.342, 238.787 332.784, 235.492 333.559 C 232.196 334.335, 228.262 334.976, 226.750 334.984 C 225.238 334.993, 224 335.181, 224 335.402 C 224 335.623, 226.692 348.306, 229.983 363.586 C 233.273 378.866, 235.762 391.571, 235.513 391.820 C 234.372 392.961, 204.448 384.781, 202.447 382.781 C 202.254 382.587, 202.969 372.544, 204.037 360.464 C 205.105 348.384, 205.983 337.968, 205.989 337.317 C 206.002 335.895, 204.275 335.365, 196.908 334.530 L 191.316 333.896 188.006 353.963 L 184.696 374.031 182.098 372.380 C 176.495 368.820, 163.981 359.632, 162.659 358.109 C 161.440 356.704, 162.064 354.785, 167.570 343 C 171.040 335.575, 173.905 329.157, 173.939 328.737 C 174.011 327.838, 165.228 323.419, 164.647 324.061 C 164.429 324.303, 161.644 329.450, 158.458 335.500 C 155.271 341.550, 152.467 346.725, 152.226 347 C 151.985 347.275, 149.572 345.037, 146.864 342.026 C 131.564 325.016, 119.231 299.878, 113.827 274.688 C 110.861 260.863, 110.605 231.986, 113.329 218.536 C 122.756 171.988, 150.946 134.137, 191.825 113.139 C 248.686 83.931, 317.065 94.052, 362.861 138.454 C 380.780 155.828, 392.527 174.083, 400.389 196.772 C 411.064 227.582, 411.326 261.951, 401.116 292.156 C 393.536 314.581, 382.205 332.884, 365.556 349.599 C 354.455 360.743, 347.704 366.227, 337.553 372.341 L 332.087 375.635 380.075 433.936 L 428.064 492.237 435.782 484.366 C 440.027 480.036, 445.718 473.878, 448.428 470.681 L 453.357 464.867 416.824 428.183 L 380.292 391.500 384.756 387.500 C 387.211 385.300, 389.797 383.167, 390.502 382.761 C 391.326 382.285, 405.655 392.545, 430.642 411.501 C 452.014 427.715, 469.796 440.985, 470.158 440.990 C 470.520 440.996, 473.623 436.197, 477.054 430.328 C 483.142 419.912, 483.245 419.617, 481.327 418.078 C 480.245 417.210, 462.897 405.067, 442.774 391.094 L 406.188 365.687 411.715 358.344 C 414.755 354.305, 417.415 351, 417.626 351 C 417.837 351, 435.567 359.781, 457.025 370.513 C 495.744 389.877, 496.047 390.007, 496.953 387.623 C 499.663 380.496, 503.160 367.864, 502.727 366.766 C 502.452 366.070, 485.733 357.885, 465.573 348.578 C 445.100 339.127, 429.104 331.180, 429.340 330.578 C 430.476 327.675, 438.299 309.460, 438.525 309.191 C 438.668 309.021, 454.904 313.163, 474.604 318.396 C 494.305 323.628, 510.500 327.817, 510.592 327.705 C 510.685 327.592, 510.958 324.646, 511.201 321.157 C 511.599 315.426, 511.439 314.737, 509.546 314.018 C 508.394 313.580, 493.287 309.501, 475.976 304.954 C 458.664 300.408, 444.129 296.365, 443.677 295.970 C 443.224 295.576, 443.760 290.809, 444.868 285.377 C 445.976 279.944, 447.141 273.879, 447.458 271.898 L 448.035 268.297 452.767 268.721 C 455.370 268.955, 469.366 270.138, 483.869 271.351 L 510.238 273.555 509.730 267.222 C 509.450 263.738, 509.045 260.712, 508.831 260.497 C 508.616 260.282, 495.225 258.967, 479.074 257.574 C 462.923 256.182, 449.596 254.920, 449.459 254.771 C 449.321 254.622, 449.049 247.529, 448.854 239.008 L 448.500 223.516 473.414 221.261 C 487.117 220.020, 498.482 218.852, 498.669 218.665 C 498.856 218.477, 498.513 216.903, 497.908 215.165 C 496.823 212.055, 496.726 212.014, 491.653 212.572 C 482.216 213.609, 447.504 216.705, 447.263 216.531 C 447.133 216.437, 446.339 212.737, 445.499 208.310 C 444.659 203.882, 442.854 196.525, 441.488 191.961 C 440.122 187.397, 439.116 183.557, 439.252 183.429 C 439.388 183.300, 448.050 180.857, 458.500 178 C 468.950 175.143, 477.646 172.665, 477.824 172.495 C 478.002 172.325, 477.449 170.836, 476.596 169.186 L 475.045 166.187 465.773 168.734 C 460.673 170.135, 452.022 172.490, 446.549 173.968 L 436.598 176.655 432.507 167.577 C 408.119 113.460, 359.033 73.574, 300.883 60.625 C 281.330 56.271, 258.925 54.975, 240 57.103 " stroke="none" fill="black" fill-rule="evenodd"/>
</svg>